HIERARCHY
ROOT Hips
{
	OFFSET	0.00	0.00	0.00
	CHANNELS 6 Xposition Yposition Zposition Zrotation Xrotation Yrotation
	JOINT LeftUpLeg
	{
		OFFSET	 0.126116	-0.014019	-0.065224
		CHANNELS 3 Zrotation Xrotation Yrotation
		JOINT LeftLeg
		{
			OFFSET	 0.000000	 0.000000	 0.569914
			CHANNELS 3 Zrotation Xrotation Yrotation
			JOINT LeftFoot
			{
				OFFSET	 0.000000	 0.000000	 0.544423
				CHANNELS 3 Zrotation Xrotation Yrotation
				JOINT LeftToeBase
				{
					OFFSET	 0.000000	 0.000000	 0.207117
					CHANNELS 3 Zrotation Xrotation Yrotation
					End Site
					{
						OFFSET	 0.000000	 0.000000	 0.207117
					}
				}
			}
		}
	}
	JOINT RightUpLeg
	{
		OFFSET	-0.124023	-0.008373	-0.065224
		CHANNELS 3 Zrotation Xrotation Yrotation
		JOINT RightLeg
		{
			OFFSET	 0.000000	 0.000000	 0.570047
			CHANNELS 3 Zrotation Xrotation Yrotation
			JOINT RightFoot
			{
				OFFSET	 0.000000	 0.000000	 0.544354
				CHANNELS 3 Zrotation Xrotation Yrotation
				JOINT RightToeBase
				{
					OFFSET	 0.000000	 0.000000	 0.207540
					CHANNELS 3 Zrotation Xrotation Yrotation
					End Site
					{
						OFFSET	 0.000000	 0.000000	 0.207540
					}
				}
			}
		}
	}
	JOINT Spine
	{
		OFFSET	 0.000184	-0.007763	 0.117403
		CHANNELS 3 Zrotation Xrotation Yrotation
		JOINT Spine1
		{
			OFFSET	 0.000000	 0.000000	 0.137269
			CHANNELS 3 Zrotation Xrotation Yrotation
			JOINT Spine2
			{
				OFFSET	 0.000000	 0.000000	 0.156879
				CHANNELS 3 Zrotation Xrotation Yrotation
				JOINT LeftShoulder
				{
					OFFSET	 0.080501	-0.002496	 0.160144
					CHANNELS 3 Zrotation Xrotation Yrotation
					JOINT LeftArm
					{
						OFFSET	 0.000000	 0.000000	 0.164363
						CHANNELS 3 Zrotation Xrotation Yrotation
						JOINT LeftForeArm
						{
							OFFSET	 0.000000	 0.000000	 0.364576
							CHANNELS 3 Zrotation Xrotation Yrotation
							JOINT LeftHand
							{
								OFFSET	 0.000000	 0.000000	 0.360812
								CHANNELS 3 Zrotation Xrotation Yrotation
								JOINT LeftHandIndex1
								{
									OFFSET	 0.000000	 0.000000	 0.086006
									CHANNELS 3 Zrotation Xrotation Yrotation
									JOINT LeftHandIndex2
									{
										OFFSET	 0.000000	 0.000000	 0.047236
										CHANNELS 3 Zrotation Xrotation Yrotation
										JOINT LeftHandIndex3
										{
											OFFSET	-0.004284	-0.000551	 0.038166
											CHANNELS 3 Zrotation Xrotation Yrotation
											End Site
											{
												OFFSET	-0.004284	-0.000551	 0.038166
											}
										}
									}
								}
							}
						}
					}
				}
				JOINT Neck
				{
					OFFSET	 0.000000	 0.000000	 0.176489
					CHANNELS 3 Zrotation Xrotation Yrotation
					JOINT Head
					{
						OFFSET	 0.000000	-0.001747	 0.077940
						CHANNELS 3 Zrotation Xrotation Yrotation
						End Site
						{
							OFFSET	 0.000000	-0.001747	 0.077940
						}
					}
				}
				JOINT RightShoulder
				{
					OFFSET	-0.080363	 0.000306	 0.159706
					CHANNELS 3 Zrotation Xrotation Yrotation
					JOINT RightArm
					{
						OFFSET	 0.000000	 0.000000	 0.164196
						CHANNELS 3 Zrotation Xrotation Yrotation
						JOINT RightForeArm
						{
							OFFSET	 0.000000	 0.000000	 0.365611
							CHANNELS 3 Zrotation Xrotation Yrotation
							JOINT RightHand
							{
								OFFSET	 0.000000	 0.000000	 0.360648
								CHANNELS 3 Zrotation Xrotation Yrotation
								JOINT RightHandIndex1
								{
									OFFSET	 0.000000	 0.000000	 0.069977
									CHANNELS 3 Zrotation Xrotation Yrotation
									JOINT RightHandIndex2
									{
										OFFSET	 0.000000	 0.000000	 0.052305
										CHANNELS 3 Zrotation Xrotation Yrotation
										JOINT RightHandIndex3
										{
											OFFSET	 0.009002	-0.000782	 0.042196
											CHANNELS 3 Zrotation Xrotation Yrotation
											End Site
											{
												OFFSET	 0.009002	-0.000782	 0.042196
											}
										}
									}
								}
							}
						}
					}
				}
			}
		}
	}
}
MOTION
Frames:    6
Frame Time: 0.03333334
-0.057751	-2.243155	 1.206162	 4.703661	-1.334575	-2.967788	 7.911156	-10.135290	-173.317300	 0.754992	-37.432620	 0.244521	 52.645710	 80.984720	-56.562770	-2.370173	 31.484820	-0.066983	-12.882330	-31.101980	-176.164400	 10.117730	-49.612130	 8.325573	 8.518370	 72.496300	-3.351988	 2.358541	 33.064010	 0.104705	-0.884691	 8.761244	 1.860387	-1.275751	 2.101907	-0.434307	 0.536921	-2.150992	 0.363333	-93.891090	 58.963170	 175.489300	 16.472160	 35.591470	-36.871430	-17.265930	 3.000546	-10.353260	-8.376204	-8.702529	-8.471191	-4.869162	 19.246200	-2.786508	-3.885871	 21.417160	 2.207166	-4.808260	 5.545473	 0.146969	-0.089568	-5.058822	 0.177169	-1.597943	 2.251975	 2.670376	 89.793820	 61.630620	-179.972100	-19.508440	 50.875140	 15.211180	 14.477070	 2.960839	 10.375940	 3.940774	 4.691284	-0.094466	 6.296540	 25.155650	-0.550104	 1.846565	 45.013460	-6.958384	 0.487412	 24.446410	 3.588012
-0.059454	-2.280009	 1.204994	 5.644808	-0.572562	-2.922952	 6.707737	-8.855613	-173.732900	 1.205529	-36.725120	 0.509990	 55.229240	 81.792710	-59.492090	-2.368536	 31.757540	-0.073163	-15.566140	-33.496200	-177.268200	 10.332430	-43.957120	 7.748064	 9.523971	 75.978040	-5.469102	 2.359006	 32.994940	 0.103102	-0.949761	 8.293774	 1.721847	-1.591572	 1.926935	-0.602800	 1.086621	-2.223178	 0.687143	-94.104190	 59.018830	 175.027500	 15.495470	 33.226220	-38.314300	-17.784620	 2.990146	-10.327970	-7.526535	-8.449711	-9.505490	-4.864351	 19.376020	-2.796360	-3.874842	 21.558300	 2.195958	-4.804683	 5.587669	 0.144505	-0.039768	-5.104377	 0.230138	-0.895788	 2.149029	 2.554622	 89.717050	 61.724740	 179.844400	-19.118750	 51.867560	 13.330070	 13.878110	 2.940802	 10.352450	 3.553036	 5.736346	-0.528432	 6.277534	 23.638240	-0.550415	 2.031967	 43.488620	-7.123224	 0.783410	 23.136760	 3.440035
-0.061255	-2.324544	 1.201499	 6.304962	 0.365821	-3.158355	 5.870140	-7.196128	-173.967600	 1.490972	-35.803870	 0.665946	 61.670000	 82.933500	-66.090980	-2.366056	 32.158660	-0.082303	-17.457640	-35.567130	-178.392600	 10.401000	-35.937120	 6.603827	 12.074900	 76.934290	-9.575443	 2.360881	 32.714150	 0.096607	-0.501924	 7.567379	 1.765131	-1.876921	 2.029085	-0.682998	 1.632003	-2.360115	 0.949283	-94.332030	 58.962320	 174.550000	 14.036690	 30.499120	-39.972350	-18.465200	 2.971539	-10.288730	-6.991048	-8.693604	-9.377945	-4.849530	 19.731870	-2.815328	-3.855035	 21.810220	 2.175832	-4.793274	 5.722007	 0.136618	-0.008755	-5.169306	 0.302019	-0.264771	 2.044502	 2.539299	 89.584530	 61.887180	 179.524800	-18.438260	 52.900590	 11.215640	 12.630390	 2.904906	 10.312840	 2.800486	 6.894162	-1.522504	 6.244286	 21.589910	-0.608163	 2.225682	 41.795090	-7.293835	 1.224999	 21.127110	 3.229838
-0.063189	-2.367428	 1.196789	 6.517517	 0.882780	-3.457495	 5.410051	-5.004655	-174.183000	 1.620752	-34.656280	 0.721144	 66.962810	 83.837060	-71.409180	-2.360461	 33.016140	-0.102037	-17.126050	-36.243000	-178.753400	 9.839136	-27.949270	 5.011340	 22.263200	 79.242010	-20.747240	 2.355048	 33.564310	 0.116391	 0.123991	 6.974774	 1.948051	-2.076205	 2.572093	-0.749099	 2.076705	-2.576650	 1.139041	-94.455680	 58.886540	 174.298800	 12.443690	 28.481210	-41.355980	-19.090440	 2.946765	-10.237340	-6.989663	-8.713479	-8.788552	-4.830560	 20.122580	-2.822158	-3.830257	 22.123220	 2.150666	-4.775149	 5.934847	 0.124079	 0.016265	-5.255422	 0.337108	 0.203440	 1.929431	 2.534618	 89.471700	 62.006390	 179.250300	-17.476560	 53.655080	 9.191947	 11.175660	 2.862621	 10.266160	 2.170135	 7.634487	-2.912192	 6.206021	 19.553890	-0.688149	 2.468129	 39.518430	-7.504750	 1.664944	 19.059760	 3.033636
-0.066116	-2.413568	 1.190203	 6.736730	 1.059697	-3.694896	 4.837313	-2.134640	-174.573800	 1.789630	-33.228310	 0.787509	 66.797740	 84.510800	-71.264480	-2.346604	 34.912350	-0.146774	-16.417910	-37.061330	-178.918200	 9.822950	-21.426020	 3.903680	 29.557590	 79.358110	-28.908080	 2.341841	 35.298500	 0.157736	 0.639584	 6.802021	 2.114880	-2.257770	 2.936158	-0.787887	 2.463003	-2.851098	 1.287649	-94.523930	 58.883320	 174.154200	 10.780590	 27.144340	-42.460380	-19.232230	 2.910138	-10.175570	-7.029755	-9.011426	-8.785736	-4.835174	 20.404910	-2.932294	-3.802372	 22.472250	 2.122350	-4.748273	 6.249402	 0.105411	 0.072009	-5.351035	 0.351484	 0.638099	 1.844561	 2.385167	 89.388660	 62.003430	 179.049700	-16.218750	 54.171710	 6.748559	 9.753238	 2.812397	 10.205020	 1.825558	 7.845969	-4.298566	 6.174354	 17.388570	-0.707247	 2.742251	 36.712920	-7.739193	 2.117621	 16.866960	 2.846265
-0.070535	-2.460413	 1.181107	 6.980915	 1.057292	-3.628240	 4.116108	 0.862360	-175.336700	 2.151937	-32.018080	 0.954148	 53.718820	 84.678110	-58.246660	-2.313093	 38.613860	-0.239071	-15.887810	-39.572660	-179.423400	 9.888523	-19.024790	 3.506618	 20.985980	 75.944160	-20.511940	 2.336962	 35.884760	 0.172021	 1.068769	 6.797501	 2.079926	-2.363850	 3.314434	-0.862187	 2.752726	-3.151887	 1.396458	-94.532810	 59.060800	 174.106000	 9.217000	 26.466030	-43.465740	-19.137020	 2.863083	-10.100660	-7.187958	-9.753797	-9.338809	-4.861307	 20.551610	-3.127661	-3.776757	 22.790160	 2.096330	-4.711373	 6.678921	 0.079659	 0.143390	-5.440424	 0.314659	 1.039477	 1.825028	 2.203034	 89.357170	 61.810430	 178.980900	-15.007960	 54.293050	 4.306797	 8.479596	 2.754648	 10.130670	 1.569211	 7.641848	-5.432146	 6.174469	 15.195400	-0.562087	 2.942554	 34.492440	-7.907406	 2.553599	 14.695110	 2.680432
